<?xml version="1.0" standalone="no"?><!DOCTYPE svg PUBLIC "-//W3C//DTD SVG 1.1//EN" "http://www.w3.org/Graphics/SVG/1.1/DTD/svg11.dtd"><svg t="1719478647494" class="icon" viewBox="0 0 1024 1024" version="1.1" xmlns="http://www.w3.org/2000/svg" p-id="47073" xmlns:xlink="http://www.w3.org/1999/xlink" width="256" height="256"><path d="M640 213.333333 597.333333 213.333333 597.333333 170.666667 640 170.666667M426.666667 213.333333 384 213.333333 384 170.666667 426.666667 170.666667M662.613333 92.16 718.506667 36.266667C726.613333 28.16 726.613333 14.506667 718.506667 5.973333 709.973333-2.133333 696.32-2.133333 688.213333 5.973333L625.066667 69.12C590.933333 52.48 552.533333 42.666667 512 42.666667 471.04 42.666667 432.64 52.48 398.506667 69.546667L334.933333 5.973333C326.826667-2.133333 313.173333-2.133333 305.066667 5.973333 296.533333 14.506667 296.533333 28.16 305.066667 36.266667L360.96 92.16C297.386667 139.093333 256 213.333333 256 298.666667L768 298.666667C768 213.333333 725.333333 138.666667 662.613333 92.16M874.666667 341.333333C839.253333 341.333333 810.666667 369.92 810.666667 405.333333L810.666667 704C810.666667 739.413333 839.253333 768 874.666667 768 910.08 768 938.666667 739.413333 938.666667 704L938.666667 405.333333C938.666667 369.92 910.08 341.333333 874.666667 341.333333M149.333333 341.333333C113.92 341.333333 85.333333 369.92 85.333333 405.333333L85.333333 704C85.333333 739.413333 113.92 768 149.333333 768 184.746667 768 213.333333 739.413333 213.333333 704L213.333333 405.333333C213.333333 369.92 184.746667 341.333333 149.333333 341.333333M256 768C256 791.466667 275.2 810.666667 298.666667 810.666667L341.333333 810.666667 341.333333 960C341.333333 995.413333 369.92 1024 405.333333 1024 440.746667 1024 469.333333 995.413333 469.333333 960L469.333333 810.666667 554.666667 810.666667 554.666667 960C554.666667 995.413333 583.253333 1024 618.666667 1024 654.08 1024 682.666667 995.413333 682.666667 960L682.666667 810.666667 725.333333 810.666667C748.8 810.666667 768 791.466667 768 768L768 341.333333 256 341.333333 256 768Z" p-id="47074" fill="#41B883"></path></svg>