<?xml version="1.0" standalone="no"?><!DOCTYPE svg PUBLIC "-//W3C//DTD SVG 1.1//EN" "http://www.w3.org/Graphics/SVG/1.1/DTD/svg11.dtd"><svg t="1719478679111" class="icon" viewBox="0 0 1024 1024" version="1.1" xmlns="http://www.w3.org/2000/svg" p-id="48181" xmlns:xlink="http://www.w3.org/1999/xlink" width="256" height="256"><path d="M506.762 179.922c-2.11 1.9-4.3 3.707-6.302 5.709-94.331 94.254-188.637 188.523-282.962 282.782-11.034 11.034-22.129 22.011-33.219 32.989-6.979 6.917-6.605 13.798 1.27 21.657 37.842 37.811 75.689 75.612 113.536 113.418L500.95 838.16c8.248 8.228 14.357 8.218 22.65-0.071 40.853-40.822 81.706-81.639 122.538-122.481 19.461-19.461 45.41-22.492 66.468-7.67 23.997 16.891 28.073 52.639 7.506 73.529-40.182 40.821-80.886 81.12-121.39 121.61-15.734 15.728-31.412 31.519-47.289 47.109-22.876 22.451-56.11 22.65-78.74 0.128-56.156-55.87-112.082-111.97-168.136-167.941a312823.926 312823.926 0 0 0-229.74-229.238c-13.076-13.03-19.553-28.319-17.873-46.894 1.141-12.605 6.17-23.516 14.976-32.394a35948.483 35948.483 0 0 1 109.03-109.22c95.99-95.893 192.051-191.729 287.98-287.698 9.62-9.62 20.177-16.963 33.879-19.185 18.37-2.985 34.672 1.654 47.826 14.562 31.539 30.94 62.607 62.371 93.85 93.614 0.209 0.215 0.322 0.537 0.48 0.814-2.8 1.218-4.372-1.05-6.205-2.31-12.385-8.56-25.41-15.702-40.223-19.215-19.323-4.587-37.478-1.234-54.794 7.885-10.368 5.458-19.584 12.554-28.288 20.357-2.703 2.412-5.632 4.537-8.694 6.472z" fill="#29CCFE" p-id="48182"></path><path d="M789.325 336.046c15.682 0.051 27.34 4.987 36.935 14.515 41.513 41.242 83.093 82.432 124.36 123.93 22.083 22.205 22.344 55.45 0.323 77.768-40.996 41.548-82.35 82.739-123.843 123.801-13.926 13.778-31.083 17.859-49.792 11.96-17.956-5.667-29.27-18.35-33.208-36.771-3.958-18.51 2.248-34.059 15.472-47.222 26.174-26.03 52.25-52.168 78.357-78.27 9.011-9.01 8.975-14.94-0.097-24.002-26.778-26.762-53.596-53.494-80.328-80.312-18.877-18.93-21.15-45.374-5.427-66.14 9.764-12.877 23.173-19.016 37.248-19.257z" fill="#F9806E" p-id="48183"></path><path d="M514.253 406.124c58.527-0.123 107.77 46.894 107.658 107.75-0.107 60.759-47.77 107.73-107.571 107.93-60.98 0.21-108.416-48.082-108.365-108.068 0.056-61.548 50.258-108.135 108.278-107.612z" fill="#F98D7D" p-id="48184"></path><path d="M506.762 179.922c18.601-18.401 39.035-33.905 65.843-37.566 15.417-2.104 30.331 1.245 44.411 7.962 8.387 4.004 16.415 8.602 23.87 14.188 1.213 0.9 2.355 2.165 4.08 2.237 24.52 24.515 49.173 48.896 73.513 73.59 19.661 19.937 19.508 50.253 0.067 69.627-19.466 19.39-50.191 19.353-70.083-0.43A40343.726 40343.726 0 0 1 523.72 184.832c-4.926-4.956-10.158-7.245-16.958-4.91z" fill="#4284EA" p-id="48185"></path></svg>