<?xml version="1.0" standalone="no"?><!DOCTYPE svg PUBLIC "-//W3C//DTD SVG 1.1//EN" "http://www.w3.org/Graphics/SVG/1.1/DTD/svg11.dtd"><svg t="1719479015310" class="icon" viewBox="0 0 1024 1024" version="1.1" xmlns="http://www.w3.org/2000/svg" p-id="57058" xmlns:xlink="http://www.w3.org/1999/xlink" width="256" height="256"><path d="M499.2 863.189333H210.346667a47.018667 47.018667 0 0 1-47.914667-47.872v-290.56c0-12.757333 4.778667-25.514667 14.378667-33.493333l373.546666-375.168A251.093333 251.093333 0 0 1 729.088 42.666667c67.072 0 130.944 25.557333 178.773333 73.429333a252.416 252.416 0 0 1 0 357.589333l-375.125333 375.168a49.792 49.792 0 0 1-33.493333 14.336z m-241.024-95.786666h221.866667l359.253333-360.746667c60.586667-60.672 60.586667-161.28 0-221.909333a154.368 154.368 0 0 0-111.786667-46.293334 157.013333 157.013333 0 0 0-111.744 46.293334l-357.546666 359.168v223.488z" fill="#172B4D" p-id="57059"></path><path d="M90.538667 981.333333c-12.757333 0-23.893333-4.778667-33.493334-14.378666-19.2-19.157333-19.2-49.493333 0-67.029334l549.12-549.12c19.2-19.2 49.493333-19.2 67.072 0 19.157333 19.114667 19.157333 49.450667 0 66.986667L124.117333 966.954667a45.952 45.952 0 0 1-33.578666 14.378666z" fill="#172B4D" p-id="57060"></path><path d="M657.28 684.373333H387.498667a47.018667 47.018667 0 0 1-47.914667-47.872c0-27.136 20.778667-47.872 47.914667-47.872h269.781333c27.136 0 47.872 20.736 47.872 47.872 0 27.136-20.736 47.914667-47.872 47.914667z" fill="#172B4D" p-id="57061"></path></svg>