<?xml version="1.0" standalone="no"?><!DOCTYPE svg PUBLIC "-//W3C//DTD SVG 1.1//EN" "http://www.w3.org/Graphics/SVG/1.1/DTD/svg11.dtd"><svg t="1719475479146" class="icon" viewBox="0 0 1024 1024" version="1.1" xmlns="http://www.w3.org/2000/svg" p-id="18017" xmlns:xlink="http://www.w3.org/1999/xlink" width="256" height="256"><path d="M217.06694 139.041556a21.066647 21.066647 0 0 0 21.066647-21.066647V96.908262h42.133295v21.066647a21.066647 21.066647 0 1 0 42.133294 0v-84.266588a21.066647 21.066647 0 0 0-42.133294 0V54.774968h-42.133295V33.708321a21.066647 21.066647 0 0 0-42.133294 0v84.266588A21.066647 21.066647 0 0 0 217.06694 139.041556zM385.600117 54.774968h21.066647v63.199941a21.066647 21.066647 0 1 0 42.133295 0V54.774968h21.066647a21.066647 21.066647 0 0 0 0-42.133294H385.600117a21.066647 21.066647 0 0 0 0 42.133294zM554.133294 139.041556a21.066647 21.066647 0 0 0 21.066647-21.066647V96.908262l25.279977 33.706636c7.921059 10.61759 25.743443 10.61759 33.706635 0l25.279977-33.706636v21.066647a21.066647 21.066647 0 1 0 42.133294 0v-84.266588a21.066647 21.066647 0 0 0-37.919965-12.639989l-46.346623 61.76741L570.986612 21.068332a21.066647 21.066647 0 1 0-37.919965 12.639989v84.266588a21.066647 21.066647 0 0 0 21.066647 21.066647zM764.799766 139.041556h63.199941a21.066647 21.066647 0 1 0 0-42.133294h-42.133294V33.708321a21.066647 21.066647 0 0 0-42.133295 0v84.266588a21.066647 21.066647 0 0 0 21.066648 21.066647zM864.655673 230.218005A20.982381 20.982381 0 0 0 849.066354 223.308145H174.933646a20.982381 20.982381 0 0 0-20.982381 23.046912l63.199942 674.132708c0.842666 8.637325 6.867727 15.884252 15.210119 18.28585l294.93306 84.266589a20.729581 20.729581 0 0 0 12.429322-0.294934l252.799765-84.266588a21.066647 21.066647 0 0 0 14.32532-17.990917l63.199942-674.132708a21.193047 21.193047 0 0 0-5.393062-16.137052zM359.772408 541.920116a21.066647 21.066647 0 0 0 20.898114 18.454383H680.533177a21.066647 21.066647 0 0 1 20.982381 23.173312l-21.066647 210.666471a21.193047 21.193047 0 0 1-14.283187 17.90665l-126.399883 42.133295a20.982381 20.982381 0 0 1-12.471455 0.252799l-147.46653-42.133294a21.193047 21.193047 0 0 1-14.662387-15.125852l-21.066647-84.266589a21.066647 21.066647 0 0 1 40.869296-10.280524l15.167986 60.671944a21.066647 21.066647 0 0 0 14.662386 15.167986l111.52683 31.85277c4.044796 1.137599 8.426659 1.095466 12.429322-0.294933l88.142851-29.366906a21.024514 21.024514 0 0 0 14.283187-17.864517l13.735454-137.186006a20.982381 20.982381 0 0 0-20.940247-23.173312H343.466823a21.066647 21.066647 0 0 1-20.898114-18.454382l-21.066647-168.533178A20.982381 20.982381 0 0 1 322.400176 391.841322H722.666471a21.066647 21.066647 0 0 1 0 42.133294H370.137198a21.10878 21.10878 0 0 0-20.898114 23.678912l10.533324 84.266588z" p-id="18018" fill="#f84102"></path></svg>