<?xml version="1.0" encoding="UTF-8" standalone="no"?>
<svg
   width="39"
   height="39"
   viewBox="0 0 39 39"
   fill="none"
   version="1.1"
   id="svg4"
   sodipodi:docname="logo.svg"
   inkscape:version="1.3.2 (091e20e, 2023-11-25, custom)"
   xmlns:inkscape="http://www.inkscape.org/namespaces/inkscape"
   xmlns:sodipodi="http://sodipodi.sourceforge.net/DTD/sodipodi-0.dtd"
   xmlns="http://www.w3.org/2000/svg"
   xmlns:svg="http://www.w3.org/2000/svg">
  <defs
     id="defs4" />
  <sodipodi:namedview
     id="namedview4"
     pagecolor="#ffffff"
     bordercolor="#000000"
     borderopacity="0.25"
     inkscape:showpageshadow="2"
     inkscape:pageopacity="0.0"
     inkscape:pagecheckerboard="0"
     inkscape:deskcolor="#d1d1d1"
     inkscape:zoom="6.105"
     inkscape:cx="61.343161"
     inkscape:cy="19.57412"
     inkscape:window-width="1920"
     inkscape:window-height="1009"
     inkscape:window-x="-8"
     inkscape:window-y="-8"
     inkscape:window-maximized="1"
     inkscape:current-layer="svg4" />
  <path
     fill-rule="evenodd"
     clip-rule="evenodd"
     d="m 19.496301,5.478092 c -5.4512,0 -9.8237997,4.34184 -9.8237997,9.64101 0,0.9341 -0.75722,1.6913 -1.6913,1.6913 -0.93409,0 -1.69131,-0.7572 -1.69131,-1.6913 0,-7.21815 5.9383097,-13.023617 13.2064097,-13.023617 7.2681,0 13.2064,5.805467 13.2064,13.023617 0,0.9341 -0.7572,1.6913 -1.6913,1.6913 -0.9341,0 -1.6913,-0.7572 -1.6913,-1.6913 0,-5.29917 -4.3727,-9.64101 -9.8238,-9.64101 z"
     fill="#99e100"
     id="path1" />
  <path
     d="m 33.287001,24.114402 0.5479,-4.3136 c 0.2179,-1.7157 0.3269,-2.5736 -0.1613,-3.1277 -0.4883,-0.5542 -1.353,-0.5542 -3.0825,-0.5542 H 8.4037413 c -1.72951,0 -2.59426,0 -3.08247,0.5542 -0.48821,0.5541 -0.37925,1.412 -0.16133,3.1277 l 0.5479,4.3136 c 0.69147,5.4439 1.0372,8.1659 2.89044,9.7986 1.8532397,1.6328 4.5970197,1.6328 10.0847197,1.6328 h 1.6288 c 5.4877,0 8.2315,0 10.0847,-1.6328 1.8533,-1.6327 2.199,-4.3547 2.8905,-9.7986 z"
     fill="#101225"
     id="path2" />
  <path
     fill-rule="evenodd"
     clip-rule="evenodd"
     d="m 8.3252513,14.892902 c 0.02628,0 0.05264,0 0.07908,0 H 30.670801 c 0.7966,-10e-5 1.5186,-2e-4 2.0981,0.0811 0.6331,0.0889 1.3065,0.2998 1.8253,0.8886 0.5188,0.5888 0.6431,1.2835 0.6515,1.9228 0.0077,0.585 -0.0834,1.3013 -0.1838,2.0916 l -0.5687,4.4768 c -0.3365,2.6501 -0.6039,4.7554 -1.028,6.3961 -0.4373,1.6917 -1.0765,3.0428 -2.2575,4.0833 -1.181,1.0405 -2.6019,1.5044 -4.3352,1.725 -1.681,0.2139 -3.8033,0.2139 -6.4746,0.2139 h -1.7998 c -2.6713,0 -4.7936,0 -6.4746,-0.2139 -1.73333,-0.2206 -3.1541897,-0.6845 -4.3352197,-1.725 -1.18102,-1.0405 -1.82022,-2.3916 -2.25747,-4.0833 -0.42406,-1.6407 -0.69146,-3.746 -1.02803,-6.3961 l -0.55867,-4.3984 c -0.00333,-0.0262 -0.00665,-0.0524 -0.00997,-0.0784 -0.10046,-0.7903 -0.19152,-1.5066 -0.18383,-2.0916 0.0084,-0.6393 0.13273,-1.334 0.65149,-1.9228 0.51877,-0.5888 1.19219,-0.7997 1.82534,-0.8886 0.57946,-0.0813 1.30149,-0.0812 2.09811,-0.0811 z m -2.08301,2.5912 c 0.00318,-0.0019 0.00912,-0.0051 0.01868,-0.0093 0.03916,-0.0172 0.12782,-0.047 0.30716,-0.0722 0.38823,-0.0545 0.93464,-0.0574 1.83625,-0.0574 H 30.591701 c 0.9016,0 1.448,0.0029 1.8362,0.0574 0.1794,0.0252 0.268,0.055 0.3072,0.0722 0.0095,0.0042 0.0155,0.0074 0.0187,0.0093 0.0014,0.0034 0.0038,0.0096 0.0068,0.0197 0.0122,0.041 0.0305,0.1327 0.0329,0.3138 0.0052,0.392 -0.0608,0.9344 -0.1744,1.8288 l -0.5479,4.3136 c -0.0033,0.0257 -0.0066,0.0514 -0.0098,0.077 -0.3447,2.7134 -0.5936,4.6409 -0.9706,6.0992 -0.3717,1.4384 -0.832,2.2647 -1.5042,2.8569 -0.6723,0.5922 -1.5499,0.9447 -3.0237,1.1323 -1.5083,0.192 -3.4744,0.1943 -6.2505,0.1943 h -1.6288 c -2.7761,0 -4.7422,-0.0023 -6.2505,-0.1943 -1.47376,-0.1876 -2.35142,-0.5401 -3.0236397,-1.1323 -0.67222,-0.5922 -1.13251,-1.4185 -1.50429,-2.8569 -0.38048,-1.4721 -0.63052,-3.4222 -0.98032,-6.1762 l -0.54789,-4.3136 c -0.11361,-0.8944 -0.17963,-1.4368 -0.17447,-1.8288 0.00237,-0.1811 0.02073,-0.2728 0.03293,-0.3138 0.00298,-0.0101 0.00538,-0.0163 0.00682,-0.0197 z m 26.5143597,0.0017 c 0,0 -1e-4,0 0,0 z"
     fill="#101225"
     id="path3" />
  <path
     fill-rule="evenodd"
     clip-rule="evenodd"
     d="m 1.3104013,15.555302 c 0,-0.934 0.757222,-1.6913 1.6913,-1.6913 H 35.902001 c 0.9341,0 1.6913,0.7573 1.6913,1.6913 0,0.9341 -0.7572,1.6913 -1.6913,1.6913 H 3.0017013 c -0.934078,0 -1.6913,-0.7572 -1.6913,-1.6913 z"
     fill="#101225"
     id="path4" />
</svg>
