<?xml version="1.0" standalone="no"?><!DOCTYPE svg PUBLIC "-//W3C//DTD SVG 1.1//EN" "http://www.w3.org/Graphics/SVG/1.1/DTD/svg11.dtd"><svg t="1719479281860" class="icon" viewBox="0 0 1063 1024" version="1.1" xmlns="http://www.w3.org/2000/svg" p-id="3682" xmlns:xlink="http://www.w3.org/1999/xlink" width="265.75" height="256"><path d="M67.559096 240.413374c-94.163721 135.275997-82.488251 311.193969-10.510623 454.849187 1.629956 3.492467 3.459245 6.818824 5.222089 10.145181a73.340769 73.340769 0 0 0 3.426023 6.618453 33.881291 33.881291 0 0 0 2.095065 3.69699c1.16381 2.295435 2.395101 4.523388 3.592133 6.748227l6.955865 11.740877c1.296698 2.162547 2.52799 4.290834 3.991836 6.485565 2.428324 4.152755 5.321756 8.281632 7.849745 12.4728 1.16381 1.729622 2.228991 3.459245 3.492467 5.190944 4.923091 7.716857 9.447518 14.135978 14.235645 20.355767l-0.499369-0.665479c3.459245 4.755943 6.91849 9.343699 10.643511 13.969869 1.197032 1.6964 2.52799 3.359579 3.758244 5.055979l9.811922 11.939171c1.197032 1.36418 2.395101 2.959876 3.691799 4.3905 4.360393 5.22209 8.947111 10.344513 13.570165 15.469013 0 0.103819 0.132888 0.16611 0.232555 0.298998a139.060195 139.060195 0 0 0 18.626144 19.358068l0.199333 0.16611c3.558911 3.625355 7.0846 7.283932 10.876065 10.809622l4.490167 4.290834c4.923091 4.623055 9.845144 9.213925 15.034011 13.670869 0.103819 0 0.132888 0.103819 0.232554 0.132889l2.52799 2.227953c4.523388 3.958614 9.079999 7.882967 13.737314 11.541544l5.55431 4.656277c3.758243 3.02632 7.682597 5.887569 11.541544 8.880667l6.021495 4.623054c4.124724 3.093803 8.513148 6.153345 12.739615 9.179665 1.563512 1.097366 3.093803 2.228991 4.689498 3.226691l1.296698 1.030921 12.4728 8.215188 5.321756 3.558911c6.518787 4.152755 13.005391 8.115522 19.424512 12.007692 1.862511 0.93437 3.725021 1.962177 5.454643 3.02632 4.789165 2.760544 9.745478 5.55431 14.602125 8.115522 2.660878 1.497068 5.421422 2.793766 8.148744 4.152755 3.322204 1.862511 6.785602 3.691799 10.344513 5.55431a12.873541 12.873541 0 0 1 2.561212 1.064143l-0.066444-0.033222c1.463846 0.665479 2.826988 1.36418 4.256574 2.095065 5.321756 2.660878 10.876066 5.190944 16.630745 7.716857a36.128969 36.128969 0 0 1 3.362694 1.498106 602.979 602.979 0 0 0 19.39129 8.0823c1.497068 0.432925 3.093803 1.197032 4.656276 1.764921a1249.174683 1249.174683 0 0 0 18.227481 6.748227l2.228991 0.798367c6.785602 2.295435 13.470499 4.523388 20.355767 6.652714 1.596734 0.432925 3.226691 1.030921 4.923091 1.463846 7.051378 2.128287 13.870202 4.656277 20.988024 6.021495 455.015298 82.920137 587.262898-273.575199 587.262898-273.575199-111.093466 144.653956-308.238246 182.804279-494.929503 140.363121-6.91849-1.596734-13.83698-3.824687-20.788692-5.854346-12.705354-3.658577-21.054468-6.385899-29.3361-9.313592l4.191168 1.296698-2.760544-1.064143c-6.021495-2.028621-11.840543-4.290834-17.728111-6.55201-1.130588-0.499369-2.727322-1.097366-4.390501-1.661102l-0.499368-0.132888a591.290032 591.290032 0 0 1-19.158736-8.115522c-1.36418-0.432925-2.52799-1.064143-3.891131-1.596734-11.641211-5.155645-16.896522-7.682597-22.118612-10.244847l6.120123 2.699291c-1.629956-0.698701-3.093803-1.463846-4.689499-2.295435-4.152755-1.962177-8.349114-4.152755-12.406356-6.286233-3.791465-1.796067-6.518787-3.226691-9.179665-4.722721l0.898033 0.466147c-5.022757-2.660878-10.011254-5.55431-15.034011-8.281632a54.059527 54.059527 0 0 0-4.956313-2.926654 600.143706 600.143706 0 0 1-22.21724-13.600273l2.793766 1.661102a96.289932 96.289932 0 0 1-5.487866-3.691799l0.265776 0.199332c-5.721458-3.529842-10.244847-6.552009-14.638461-9.679034l0.798367 0.565813c-1.563512-1.030921-2.959876-2.128287-4.556611-3.226691-5.653976-3.924354-9.911588-7.018156-14.102756-10.17425l1.064144 0.765145c-1.862511-1.497068-3.857909-2.926654-5.854347-4.423722-3.891132-3.059542-7.849745-5.987235-11.740877-9.213925l-5.222089-4.152755a439.765343 439.765343 0 0 1-15.334048-12.905725l0.53259 0.432925a11.835352 11.835352 0 0 0-1.596734-1.296698l-0.033222-0.033222-15.403607-14.021778-4.423722-4.152755c-3.625355-3.691799-7.350376-7.217488-11.076436-10.876065l-4.290834-4.423723a410.603659 410.603659 0 0 1-13.437277-14.00309l-0.265777-0.298998-0.665479-0.698701c-4.689499-5.155645-9.280369-10.381888-13.870202-15.699491-1.197032-1.36418-2.295435-2.826988-3.558911-4.290834l-10.011254-12.273467c-3.492467-4.360393-8.44878-10.842844-13.304389-17.362669l-1.796067-2.491654c-103.542719-141.394043-141.028601-336.505012-58.138571-496.559459z m292.1349-113.920454c-68.252606 97.955187-64.393658 228.971495-11.275768 332.580658a400.89867 400.89867 0 0 0 30.86639 51.45575l-0.830551-1.263476c10.211625 14.638462 21.453133 31.930534 35.124002 43.738893 4.755943 5.421422 9.878366 10.643511 15.266566 15.932045l3.991836 3.991836q7.578778 7.333765 15.533381 14.401754l0.665479 0.565813c5.321756 4.689499 11.30899 9.645812 17.429113 14.468199l0.934369 0.698701c1.497068 1.030921 2.793766 2.228991 4.256574 3.226691a566.164826 566.164826 0 0 0 18.926182 13.969868l0.665479 0.398664c2.760544 1.995399 5.687198 3.824687 8.781 5.75468 1.230254 0.798367 2.660878 1.862511 3.991836 2.660878 4.689499 3.02632 9.313591 5.854346 14.069534 8.747779 0.765145 0.298998 1.430624 0.698701 2.128287 1.030921 3.991836 2.428324 8.349114 4.789165 12.506022 6.955865 1.463846 0.898033 2.893432 1.563512 4.390501 2.395102 2.959876 1.463846 5.887569 3.02632 8.747778 4.523388l1.430624 0.632257c5.987235 2.926654 12.107357 5.687198 18.094592 8.415558 1.497068 0.565813 2.793766 1.064143 4.091502 1.696401 4.923091 2.128287 9.94481 4.152755 14.867902 6.0869 2.228991 0.765145 4.290834 1.629956 6.385899 2.295436 4.523388 1.6964 9.280369 3.226691 13.737314 4.789165l6.219789 1.995398c6.485565 1.995399 13.038613 4.623055 19.857436 5.721459 351.240025 58.24239 432.564466-212.309604 432.564466-212.309604-73.207881 105.37616-214.905075 155.563244-365.908594 116.380961-9.213925-2.361879-15.832379-4.324056-22.385426-6.485565l2.527989 0.726732c-2.128287-0.565813-3.991836-1.230254-6.021495-1.86251-4.623055-1.596734-9.343699-3.160247-13.836979-4.823425l-6.391091-2.390949c-4.956313-1.995399-10.011254-3.857909-14.867901-5.987235a43.721244 43.721244 0 0 1-4.025058-1.764921c-6.219789-2.793766-12.4728-5.55431-18.493256-8.513148l-9.146443-4.755942-5.288534-2.660878c-4.091502-2.128287-7.849745-4.360393-11.740877-6.652714a31.678254 31.678254 0 0 1-2.86021-1.563512l0.103819 0.066444c-4.689499-2.926654-9.579368-5.75468-14.069534-8.781001-1.497068-0.830551-2.893432-1.862511-4.290834-2.760544l-9.213926-6.021495c-6.385899-4.423722-12.63891-9.213925-18.926181-13.836979-1.430624-1.296698-2.793766-2.361879-4.152755-3.492467-66.390095-52.186635-118.776063-123.566266-143.589813-204.358116-26.176892-83.989472-20.388989-178.181224 24.77949-254.649018z m245.635463-85.215573c-40.281724 59.072941-44.137557 132.41371-16.398192 197.572514 29.436804 69.183861 89.672517 123.499822 159.820856 149.243789 2.893432 1.097366 5.687198 2.028621 8.648112 3.093802l3.891132 1.197032c4.091502 1.296698 8.215188 2.793766 12.406356 3.725021 194.080047 37.419438 246.569833-99.651587 260.735918-119.773762-46.1994 66.356873-123.699154 82.255696-218.726648 59.17676a210.104491 210.104491 0 0 1-24.347603-7.578778l1.463846 0.499369a272.763336 272.763336 0 0 1-29.042292-12.018073l1.661102 0.726732a289.252888 289.252888 0 0 1-48.627724-29.802247l0.698701 0.532591C632.370124 223.382925 579.650898 100.284882 635.16389-0.004153z" fill="#0769AD" p-id="3683"></path></svg>