<?xml version="1.0" standalone="no"?><!DOCTYPE svg PUBLIC "-//W3C//DTD SVG 1.1//EN" "http://www.w3.org/Graphics/SVG/1.1/DTD/svg11.dtd"><svg t="1747214220150" class="icon" viewBox="0 0 1024 1024" version="1.1" xmlns="http://www.w3.org/2000/svg" p-id="23124" xmlns:xlink="http://www.w3.org/1999/xlink" width="256" height="256"><path d="M420.648 542.536s-26.272 15.288 18.728 20.456c54.512 6.224 82.376 5.328 142.44-6.024 0 0 15.832 9.896 37.88 18.472-134.688 57.704-304.832-3.344-199.048-32.904z m-16.472-75.32s-29.472 21.832 15.56 26.488c58.24 6.008 104.216 6.504 183.832-8.824 0 0 10.984 11.168 28.288 17.256-162.816 47.632-344.168 3.752-227.68-34.92z" fill="#0074BD" p-id="23125"></path><path d="M542.92 339.448c33.208 38.224-8.704 72.592-8.704 72.592s84.264-43.496 45.568-97.984c-36.152-50.792-63.856-76.016 86.168-163.024 0.008 0-235.504 58.8-123.032 188.416z" fill="#EA2D2E" p-id="23126"></path><path d="M721.056 598.248s19.456 16.04-21.424 28.44c-77.728 23.544-323.552 30.648-391.832 0.936-24.528-10.68 21.496-25.496 35.968-28.608 15.096-3.272 23.72-2.672 23.72-2.672-27.296-19.224-176.44 37.752-75.752 54.096 274.592 44.504 500.536-20.048 429.32-52.192z m-287.76-209.072s-125.032 29.704-44.272 40.504c34.112 4.56 102.064 3.512 165.408-1.8 51.752-4.344 103.688-13.632 103.688-13.632s-18.232 7.824-31.44 16.832c-126.992 33.4-372.264 17.84-301.648-16.304 59.704-28.888 108.264-25.6 108.264-25.6zM657.6 514.536c129.08-67.056 69.392-131.504 27.736-122.824-10.184 2.128-14.76 3.968-14.76 3.968s3.8-5.952 11.024-8.504c82.416-28.96 145.784 85.448-26.576 130.76 0 0 1.976-1.792 2.576-3.4z" fill="#0074BD" p-id="23127"></path><path d="M579.792 10.504s71.48 71.512-67.808 181.456c-111.696 88.216-25.472 138.504-0.048 195.984-65.2-58.832-113.024-110.624-80.944-158.816 47.112-70.736 177.632-105.048 148.8-218.624z" fill="#EA2D2E" p-id="23128"></path><path d="M445.992 696.312c123.872 7.92 314.152-4.408 318.656-63.024 0 0-8.656 22.216-102.392 39.848-105.744 19.904-236.184 17.592-313.528 4.824 0 0 15.84 13.12 97.264 18.352z" fill="#0074BD" p-id="23129"></path><path d="M758.928 801.448h-3.776v-2.112h10.16v2.112h-3.76v10.536h-2.632l0.008-10.536z m20.28 0.528h-0.048l-3.744 10.008h-1.728l-3.72-10.008h-0.04v10.008h-2.496v-12.648h3.656l3.448 8.952 3.456-8.952h3.632v12.648h-2.416v-10.008z m-353.52 118.32c-11.68 10.128-24.032 15.824-35.128 15.824-15.792 0-24.36-9.488-24.36-24.68 0-16.44 9.168-28.48 45.904-28.48h13.576v37.336h0.008z m32.248 36.384v-112.616c0-28.792-16.424-47.784-55.976-47.784-23.088 0-43.328 5.712-59.784 12.976l4.736 19.944c12.96-4.76 29.72-9.176 46.168-9.176 22.8 0 32.6 9.176 32.6 28.168v14.232h-11.392c-55.368 0-80.352 21.48-80.352 53.784 0 27.832 16.464 43.648 47.464 43.648 19.92 0 34.808-8.224 48.704-20.264l2.528 17.096h25.304v-0.008z m107.616 0h-40.216l-48.408-157.512h35.128l30.048 96.792 6.68 29.08c15.168-42.064 25.92-84.768 31.296-125.864h34.168c-9.144 51.848-25.624 108.784-48.696 157.504z m154.304-36.384c-11.72 10.128-24.08 15.824-35.136 15.824-15.808 0-24.368-9.488-24.368-24.68 0-16.44 9.192-28.48 45.888-28.48h13.608v37.336h0.008z m32.264 36.384v-112.616c0-28.792-16.472-47.784-55.992-47.784-23.112 0-43.344 5.712-59.8 12.976l4.744 19.944c12.96-4.76 29.744-9.176 46.192-9.176 22.768 0 32.592 9.176 32.592 28.168v14.232h-11.392c-55.384 0-80.36 21.48-80.36 53.784 0 27.832 16.448 43.648 47.44 43.648 19.928 0 34.792-8.224 48.728-20.264l2.544 17.096h25.304v-0.008z m-453.544 26.768c-9.176 13.432-24.04 24.064-40.296 30.056l-15.912-18.76c12.376-6.352 22.976-16.6 27.912-26.152 4.256-8.504 6.024-19.44 6.024-45.608V743.128h34.272v177.384c0 35-2.784 49.152-12 62.936z" fill="#EA2D2E" p-id="23130"></path></svg>