<?xml version="1.0" standalone="no"?><!DOCTYPE svg PUBLIC "-//W3C//DTD SVG 1.1//EN" "http://www.w3.org/Graphics/SVG/1.1/DTD/svg11.dtd"><svg t="1720000409239" class="icon" viewBox="0 0 1024 1024" version="1.1" xmlns="http://www.w3.org/2000/svg" p-id="4590" xmlns:xlink="http://www.w3.org/1999/xlink" width="256" height="256"><path d="M39.384615 473.481846v279.355077L523.854769 1024v-286.483692z" fill="#092E40" p-id="4591"></path><path d="M1008.324923 473.481846v279.355077L523.894154 1024v-286.483692z" fill="#34AF45" p-id="4592"></path><path d="M39.384615 470.567385l88.103385-52.145231v99.091692zM1008.324923 470.567385l-88.064-52.145231v99.091692z" fill="#031237" p-id="4593"></path><path d="M523.854769 0a363.362462 363.362462 0 0 1 336.423385 500.932923l-110.316308 55.453539a297.275077 297.275077 0 1 0-444.022154 9.176615L187.943385 502.153846A363.362462 363.362462 0 0 1 523.894154 0z" fill="#34AF45" p-id="4594"></path><path d="M694.587077 477.420308c12.996923 0 22.646154 4.450462 28.987077 13.351384 6.301538 8.900923 9.452308 19.692308 9.452308 32.295385v42.299077l-159.980308 88.182154h-98.461539l-159.901538-88.221539v-41.629538c0-13.075692 3.150769-24.024615 9.452308-32.925539 6.340923-8.900923 16.462769-13.390769 30.365538-13.390769h340.086154zM543.507692 541.774769H494.276923a12.524308 12.524308 0 0 0-8.822154 3.150769 9.924923 9.924923 0 0 0-3.387077 7.601231c0 2.953846 1.142154 5.513846 3.387077 7.601231 2.284308 2.087385 5.238154 3.150769 8.822154 3.150769H543.507692c3.584 0 6.459077-1.063385 8.546462-3.150769a10.24 10.24 0 0 0 3.150769-7.601231 10.24 10.24 0 0 0-3.150769-7.601231 11.618462 11.618462 0 0 0-8.546462-3.150769z m151.552-268.760615c14.178462 0 24.103385 4.529231 29.656616 13.627077 5.553231 9.097846 8.349538 19.968 8.349538 32.649846v84.795077c0 12.681846-3.229538 23.355077-9.728 32.059077-6.498462 8.664615-15.753846 13.036308-27.805538 13.036307H353.122462a34.028308 34.028308 0 0 1-28.041847-13.036307 49.703385 49.703385 0 0 1-10.436923-32.059077V319.291077c0-12.681846 3.111385-23.552 9.29477-32.649846 6.144-9.058462 16.187077-13.627077 30.089846-13.627077h341.070769zM543.507692 348.396308H494.276923a12.681846 12.681846 0 0 0-8.822154 3.072 9.609846 9.609846 0 0 0-3.387077 7.443692c0.315077 3.780923 1.536 6.537846 3.66277 8.310154a12.996923 12.996923 0 0 0 8.546461 2.638769H543.507692c7.483077 0 11.421538-3.662769 11.736616-10.948923 0-3.820308-1.063385-6.498462-3.15077-8.113231a13.784615 13.784615 0 0 0-8.585846-2.402461z m83.574154-161.201231c4.056615 0 8.743385 0.787692 14.060308 2.481231a37.533538 37.533538 0 0 1 15.438769 10.24c2.481231 3.032615 5.750154 6.813538 9.846154 11.342769l11.697231 13.193846c4.489846 5.356308 8.861538 10.791385 13.115077 16.384h-334.769231c5.632-6.695385 11.264-12.878769 16.896-18.668308 4.332308-5.12 8.940308-10.003692 13.784615-14.532923 4.844308-4.529231 8.507077-7.876923 11.027693-10.003692 3.426462-2.756923 7.089231-5.159385 10.988307-7.286154a32.886154 32.886154 0 0 1 15.675077-3.150769h202.24z" fill="#34AF45" p-id="4595"></path><path d="M356.509538 240.836923c5.592615-6.695385 11.224615-12.878769 16.856616-18.668308 4.332308-5.12 8.940308-10.003692 13.784615-14.532923 4.844308-4.529231 8.507077-7.876923 11.027693-10.003692 3.426462-2.756923 7.089231-5.159385 10.988307-7.286154a32.886154 32.886154 0 0 1 15.675077-3.150769h202.24c4.056615 0 8.743385 0.787692 14.060308 2.481231a37.533538 37.533538 0 0 1 15.438769 10.24c2.481231 3.032615 5.750154 6.813538 9.846154 11.342769l11.697231 13.193846c4.489846 5.356308 8.861538 10.791385 13.115077 16.384h-334.769231z" fill="#092E40" p-id="4596"></path></svg>