<?xml version="1.0" standalone="no"?><!DOCTYPE svg PUBLIC "-//W3C//DTD SVG 1.1//EN" "http://www.w3.org/Graphics/SVG/1.1/DTD/svg11.dtd"><svg t="1719479532238" class="icon" viewBox="0 0 1024 1024" version="1.1" xmlns="http://www.w3.org/2000/svg" p-id="12301" xmlns:xlink="http://www.w3.org/1999/xlink" width="256" height="256"><path d="M576 512a64 64 0 1 1-64-64 64 64 0 0 1 64 64z" fill="#050A14" p-id="12302"></path><path d="M512 845.44a332.16 332.16 0 0 0 83.52-10.88v-86.72A248.96 248.96 0 0 0 674.24 704a308.8 308.8 0 0 0-44.8-96 368 368 0 0 1-200.64 173.12v54.72a334.72 334.72 0 0 0 83.2 9.6zM800 345.6a331.84 331.84 0 0 0-51.2-66.88l-75.2 43.52a250.56 250.56 0 0 0-78.4-45.44 305.6 305.6 0 0 0-60.8 86.72 367.36 367.36 0 0 1 250.24 87.36l47.36-27.52a329.6 329.6 0 0 0-32-77.76zM224 345.6a327.36 327.36 0 0 0-32 77.76l75.2 43.52a249.92 249.92 0 0 0 0 90.56 306.88 306.88 0 0 0 105.28 9.28 367.36 367.36 0 0 1-49.6-260.48l-48-27.2A330.24 330.24 0 0 0 224 345.6z" fill="#050A14" p-id="12303"></path><path d="M800 679.04a327.36 327.36 0 0 0 32-77.76l-74.88-43.52a249.92 249.92 0 0 0 0-90.56 306.88 306.88 0 0 0-105.28-9.28A367.36 367.36 0 0 1 704 718.4l47.36 27.2A329.28 329.28 0 0 0 800 679.04z" fill="#00B4FF" p-id="12304"></path><path d="M224 679.04a331.84 331.84 0 0 0 51.2 66.88l75.2-43.52a250.56 250.56 0 0 0 78.4 45.44 305.6 305.6 0 0 0 60.8-86.72 367.36 367.36 0 0 1-250.24-87.36L192 600.96a330.56 330.56 0 0 0 32 78.08z" fill="#00B4FF" p-id="12305"></path><path d="M512 178.88a331.84 331.84 0 0 0-83.52 10.88v86.72a248.96 248.96 0 0 0-78.72 45.12 308.8 308.8 0 0 0 44.8 96 368 368 0 0 1 200.64-173.12v-54.4a333.76 333.76 0 0 0-83.2-11.2z" fill="#00B4FF" p-id="12306"></path><path d="M512 121.92A390.4 390.4 0 1 1 121.92 512 391.04 391.04 0 0 1 512 121.92M512 64a448 448 0 1 0 0 896 448 448 0 0 0 0-896z" fill="#00B4FF" p-id="12307"></path></svg>