<?xml version="1.0" encoding="UTF-8" standalone="no"?>
<svg
   fill="none"
   height="32"
   viewBox="0 0 32 32"
   width="32"
   version="1.1"
   id="svg17"
   sodipodi:docname="remix-icon.svg"
   inkscape:version="1.3.2 (091e20e, 2023-11-25, custom)"
   xmlns:inkscape="http://www.inkscape.org/namespaces/inkscape"
   xmlns:sodipodi="http://sodipodi.sourceforge.net/DTD/sodipodi-0.dtd"
   xmlns="http://www.w3.org/2000/svg"
   xmlns:svg="http://www.w3.org/2000/svg">
  <defs
     id="defs17" />
  <sodipodi:namedview
     id="namedview17"
     pagecolor="#ffffff"
     bordercolor="#000000"
     borderopacity="0.25"
     inkscape:showpageshadow="2"
     inkscape:pageopacity="0.0"
     inkscape:pagecheckerboard="0"
     inkscape:deskcolor="#d1d1d1"
     inkscape:zoom="11.0625"
     inkscape:cx="34.531073"
     inkscape:cy="15.954802"
     inkscape:window-width="1920"
     inkscape:window-height="1009"
     inkscape:window-x="-8"
     inkscape:window-y="-8"
     inkscape:window-maximized="1"
     inkscape:current-layer="svg17" />
  <linearGradient
     id="a"
     gradientUnits="userSpaceOnUse"
     x1="3"
     x2="3"
     y1="3"
     y2="24">
    <stop
       offset="0"
       stop-color="#05a0fa"
       id="stop1" />
    <stop
       offset="1"
       stop-color="#4785ff"
       id="stop2" />
  </linearGradient>
  <linearGradient
     id="b"
     gradientUnits="userSpaceOnUse"
     x1="3"
     x2="3"
     y1="3"
     y2="29">
    <stop
       offset="0"
       stop-color="#1a8cff"
       id="stop3" />
    <stop
       offset="1"
       stop-color="#0557fa"
       id="stop4" />
  </linearGradient>
  <linearGradient
     id="c"
     gradientUnits="userSpaceOnUse"
     x1="22"
     x2="22"
     y1="1"
     y2="9">
    <stop
       offset="0"
       stop-color="#ff463a"
       id="stop5" />
    <stop
       offset="1"
       stop-color="#ff1f5a"
       id="stop6" />
  </linearGradient>
  <path
     d="M 19.2887,3.00389 C 19.1928,3.0013 19.0965,3 19,3 H 3 v 21 h 16 c 5.799,0 10.5,-4.701 10.5,-10.5 0,-0.7892 -0.0871,-1.558 -0.2521,-2.2975 C 28.2772,11.7119 27.1722,12 26,12 22.134,12 19,8.86599 19,5 19,4.30645 19.1009,3.63646 19.2887,3.00389 Z"
     fill="url(#a)"
     id="path15"
     style="fill:url(#a)" />
  <path
     d="M 3,3 29,29 H 3 Z"
     fill="url(#b)"
     id="path16"
     style="fill:url(#b)" />
  <path
     d="m 26,9 c 2.2091,0 4,-1.79086 4,-4 0,-2.20914 -1.7909,-4 -4,-4 -2.2091,0 -4,1.79086 -4,4 0,2.20914 1.7909,4 4,4 z"
     fill="url(#c)"
     id="path17"
     style="fill:url(#c)" />
</svg>
