<?xml version="1.0" standalone="no"?><!DOCTYPE svg PUBLIC "-//W3C//DTD SVG 1.1//EN" "http://www.w3.org/Graphics/SVG/1.1/DTD/svg11.dtd"><svg t="1719476546702" class="icon" viewBox="0 0 1024 1024" version="1.1" xmlns="http://www.w3.org/2000/svg" p-id="29747" xmlns:xlink="http://www.w3.org/1999/xlink" width="256" height="256"><path d="M883.952685 134.968226C826.960729 52.986289 733.220801 0.00033 627.152883 0.00033A310.54076 310.54076 0 0 0 463.993009 46.036294l1.344998-0.768999-239.216815 152.074883C161.989242 237.964146 116.562277 303.157096 102.915287 379.371037l-0.256 1.633999a276.385787 276.385787 0 0 0-4.677996 51.38096 283.135782 283.135782 0 0 0 34.054974 135.067896l-0.737-1.505999A259.2998 259.2998 0 0 0 90.933296 666.893816l-0.223999 1.569998a285.26478 285.26478 0 0 0-4.516997 51.099961 290.769776 290.769776 0 0 0 54.652958 170.172869l-0.609-0.865C197.484214 970.947581 291.478142 1023.99954 397.83606 1023.99954a311.43976 311.43976 0 0 0 162.390874-45.362965l-1.377999 0.768999 239.215816-152.074882c63.943951-40.685969 109.242916-105.878918 122.761905-182.02886l0.256-1.633999a276.053787 276.053787 0 0 0 4.612996-51.06496 283.264781 283.264781 0 0 0-33.989973-134.967896l0.736999 1.505999a290.110776 290.110776 0 0 0-9.161993-325.069749l0.577 0.864999zM441.440026 902.102634a184.341858 184.341858 0 0 1-47.604963 6.086995 189.054854 189.054854 0 0 1-155.313881-81.083937l-0.415999-0.609c-27.774979-38.44297-38.026971-85.856934-29.889977-132.852897l4.708996-22.648983 4.260997-14.099989 12.81399 8.553994c28.191978 21.367984 59.810954 36.744972 93.544928 46.999963l8.553993 2.978998-0.861999 8.557993a58.499955 58.499955 0 0 0 9.384993 35.459973c14.099989 20.086985 38.44297 29.889977 61.925952 23.481982 5.125996-1.699999 10.251992-3.427997 14.511989-5.990995l238.348816-152.073883a51.44696 51.44696 0 0 0 22.648982-32.899975 55.145957 55.145957 0 0 0-8.553993-40.140969 58.268955 58.268955 0 0 0-61.925952-22.648982 78.799939 78.799939 0 0 0-14.960989 6.406995l-90.11693 57.247956a187.069856 187.069856 0 0 1-96.650926 26.557979 188.991854 188.991854 0 0 1-154.95788-80.599938l-0.416-0.608999a173.867866 173.867866 0 0 1-32.676975-101.842922 176.108864 176.108864 0 0 1 2.914998-32.067975l-0.16 1.088999a164.931873 164.931873 0 0 1 74.899943-110.652914l0.699999-0.416 237.935816-152.077883c14.960988-9.386993 31.170976-16.241987 48.694963-21.367983a189.724854 189.724854 0 0 1 203.332843 75.188942 176.248864 176.248864 0 0 1 23.999982 156.719879l0.351999-1.248999-4.260996 14.099989-12.399991-8.553993a314.528757 314.528757 0 0 0-91.718929-46.387965l-2.241998-0.608999-8.553994-2.562998 0.865-8.553994a58.941955 58.941955 0 0 0-9.385993-35.879972c-14.099989-20.086985-38.44297-28.607978-61.925952-22.648982-5.125996 1.699999-10.251992 3.427997-14.511989 5.990995L367.565083 399.746022c-11.948991 8.104994-19.637985 19.221985-22.199983 33.316974a54.092958 54.092958 0 0 0 8.555993 39.722969c13.678989 20.086985 38.44297 28.607978 61.508953 22.648983 5.541996-1.699999 10.667992-3.427997 14.960988-5.990996l90.98193-58.080955a172.188867 172.188867 0 0 1 48.694963-21.783983 189.040854 189.040854 0 0 1 203.328843 75.606942c27.774979 38.44297 38.44297 85.856934 30.754976 132.399898a164.955873 164.955873 0 0 1-74.066943 110.652914l-0.672999 0.384-238.347816 151.630883a205.164842 205.164842 0 0 1-48.053963 21.399983l-1.473999 0.384z" fill="#FF3E00" p-id="29748"></path></svg>