<?xml version="1.0" encoding="UTF-8" standalone="no"?>
<svg
   width="32"
   height="32"
   viewBox="0 0 32 32"
   fill="none"
   version="1.1"
   id="svg4"
   sodipodi:docname="tabler-icons.svg"
   inkscape:version="1.3.2 (091e20e, 2023-11-25, custom)"
   xmlns:inkscape="http://www.inkscape.org/namespaces/inkscape"
   xmlns:sodipodi="http://sodipodi.sourceforge.net/DTD/sodipodi-0.dtd"
   xmlns="http://www.w3.org/2000/svg"
   xmlns:svg="http://www.w3.org/2000/svg">
  <defs
     id="defs4" />
  <sodipodi:namedview
     id="namedview4"
     pagecolor="#ffffff"
     bordercolor="#000000"
     borderopacity="0.25"
     inkscape:showpageshadow="2"
     inkscape:pageopacity="0.0"
     inkscape:pagecheckerboard="0"
     inkscape:deskcolor="#d1d1d1"
     inkscape:zoom="14.75"
     inkscape:cx="19.59322"
     inkscape:cy="15.966102"
     inkscape:window-width="1920"
     inkscape:window-height="1009"
     inkscape:window-x="-8"
     inkscape:window-y="-8"
     inkscape:window-maximized="1"
     inkscape:current-layer="svg4" />
  <path
     fill-rule="evenodd"
     clip-rule="evenodd"
     d="m 7.107,0.712 c 5.895,-0.95 11.89,-0.95 17.786,0 a 8.833,8.833 0 0 1 6.395,6.395 c 0.95,5.895 0.95,11.89 0,17.786 a 8.833,8.833 0 0 1 -6.395,6.395 c -5.895,0.95 -11.89,0.95 -17.786,0 a 8.833,8.833 0 0 1 -6.395,-6.395 55.899,55.899 0 0 1 0,-17.786 8.833,8.833 0 0 1 6.395,-6.395 z"
     fill="#0054a6"
     id="path2" />
  <path
     d="m 17.882,9.076 1.5,-2.488 6.97,6.977 -2.492,1.494 z"
     fill="#ffffff"
     id="path3" />
  <path
     d="m 9.923,12.203 7.814,-0.909 3.91,3.66 -0.974,7.287 L 11.09,24.4 A 3.06,3.06 0 0 1 8.92,24.071 l 5.245,-4.897 c 0.91,0.407 2.003,0.142 2.587,-0.626 0.583,-0.77 0.488,-1.818 -0.226,-2.484 -0.714,-0.666 -1.84,-0.755 -2.664,-0.21 -0.824,0.543 -1.108,1.562 -0.671,2.412 l -5.244,4.89 A 2.532,2.532 0 0 1 7.608,21.139 Z"
     fill="#ffffff"
     id="path4" />
</svg>
