<?xml version="1.0" standalone="no"?><!DOCTYPE svg PUBLIC "-//W3C//DTD SVG 1.1//EN" "http://www.w3.org/Graphics/SVG/1.1/DTD/svg11.dtd"><svg t="1719385314888" class="icon" viewBox="0 0 1024 1024" version="1.1" xmlns="http://www.w3.org/2000/svg" p-id="2372" xmlns:xlink="http://www.w3.org/1999/xlink" width="256" height="256"><path d="M547.9424 779.375709c0-128.530618 104.196655-232.727273 232.727273-232.727273s232.727273 104.196655 232.727272 232.727273-104.196655 232.727273-232.727272 232.727273-232.727273-104.196655-232.727273-232.727273z" fill="#666666" fill-opacity=".6" p-id="2373"></path><path d="M547.9424 244.624291c0-128.530618 104.196655-232.727273 232.727273-232.727273s232.727273 104.196655 232.727272 232.727273v209.454545a23.272727 23.272727 0 0 1-23.272727 23.272728h-418.909091a23.272727 23.272727 0 0 1-23.272727-23.272728v-209.454545z" fill="#666666" fill-opacity=".3" p-id="2374"></path><path d="M476.0576 779.375709c0 128.530618-104.196655 232.727273-232.727273 232.727273s-232.727273-104.196655-232.727272-232.727273v-209.454545a23.272727 23.272727 0 0 1 23.272727-23.272728h418.909091a23.272727 23.272727 0 0 1 23.272727 23.272728v209.454545z" fill="#666666" p-id="2375"></path></svg>