<?xml version="1.0" standalone="no"?><!DOCTYPE svg PUBLIC "-//W3C//DTD SVG 1.1//EN" "http://www.w3.org/Graphics/SVG/1.1/DTD/svg11.dtd"><svg t="1719475806609" class="icon" viewBox="0 0 1024 1024" version="1.1" xmlns="http://www.w3.org/2000/svg" p-id="20861" xmlns:xlink="http://www.w3.org/1999/xlink" width="256" height="256"><path d="M294.765714 170.666667A124.099048 124.099048 0 0 0 170.666667 294.765714v434.468572A124.099048 124.099048 0 0 0 294.765714 853.333333h434.468572A124.099048 124.099048 0 0 0 853.333333 729.185524V294.765714A124.099048 124.099048 0 0 0 729.185524 170.666667H294.765714z m106.886096 151.405714v215.576381L609.52381 316.952381h97.523809l-359.277714 390.095238V368.298667H316.952381v-46.226286h84.699429z m131.169523 253.074286c3.120762-20.23619 14.043429-51.44381 56.173715-56.124953 37.449143 0 79.579429 23.405714 51.492571 79.579429-7.314286 10.922667-30.573714 36.912762-45.738667 53.784381l-10.435047 11.751619h65.536v37.449143h-117.028572v-37.449143l70.217143-74.898286c9.362286-9.362286 10.288762-29.013333-4.681143-32.768-18.724571-4.681143-23.405714 14.043429-23.405714 18.724572h-42.130286z" p-id="20862" fill="#41B883"></path></svg>