<svg xmlns="http://www.w3.org/2000/svg" viewBox="-0.008 -0.072 168.619 112.223"><title>&#x8D44;&#x6E90; 35</title><g><path d="M111.92 75.68H121V73c0-5 0-10-.07-15a9.56 9.56 0 0 1 2.94-7.51c3.73-3.64 5.08-8.29 5-13.41-.09-5.87 0-11.75-.25-17.6-.45-9.83 8.75-18.18 17-19.31a19.92 19.92 0 0 1 22.7 16.16c.71 3.61 0 7.09-.83 10.58-1.27 5.41-3.75 10.34-5.93 15.4q-12.12 28.15-24.33 56.28c-3.66 8.48-11.48 13.78-20.57 13.53-8.93-.24-15.58-4.47-19.51-12.54C93 91 88.93 82.23 84.82 73.51c-.14-.29-.29-.56-.51-1-.21.42-.38.74-.54 1.07-4.11 8.72-8.1 17.49-12.36 26.14-4 8.21-10.87 12.51-20 12.43s-15.8-4.35-19.54-12.54c-5.48-12-10.53-24.14-15.76-36.23-4.22-9.75-8.46-19.49-12.63-29.26A39.08 39.08 0 0 1 0 20.31a19.73 19.73 0 0 1 12.74-19A20.12 20.12 0 0 1 35 6.88c2.43 2.74 4.3 5.7 4.76 9.38a34.49 34.49 0 0 1 .21 4.55c0 5.3-.06 10.6-.19 15.9-.14 5.62 1.43 10.54 5.57 14.47 1.91 1.81 2.37 4.09 2.36 6.57 0 4.84 0 9.68-.06 14.53v3.36h9.1v-3.08c0-4.84 0-9.69-.07-14.53a9.6 9.6 0 0 1 3-7.51c3.81-3.73 5.09-8.49 5-13.74-.12-5.86 0-11.73-.22-17.6-.28-9 7.87-17.49 16.57-18.9a20.3 20.3 0 0 1 22.39 13.17 17.7 17.7 0 0 1 .88 5.61c0 5.94 0 11.88-.16 17.82-.1 5.41 1.36 10.21 5.33 14a8.42 8.42 0 0 1 2.6 6.47v15.06c-.16 1.08-.15 2.13-.15 3.27z" fill="#08085e"/></g></svg>